{"title":"Wing Commander (1080)","uid":14567653,"size":2411658489,"categoryP":"video","categoryS":"hd___movies","magnet":"?xt=urn:btih:d9e608e4c7351009a6419b49414e1e6281586bbd&amp;dn=Wing+Commander+%281080%29&amp;tr=udp%3A%2F%2Ftracker.leechers-paradise.org%3A6969&amp;tr=udp%3A%2F%2Fzer0day.ch%3A1337&amp;tr=udp%3A%2F%2Fopen.demonii.com%3A1337&amp;tr=udp%3A%2F%2Ftracker.coppersurfer.tk%3A6969&amp;tr=udp%3A%2F%2Fexodus.desync.com%3A6969","seeders":0,"leechers":1,"uploader":"shink5","files":3,"time":1462768876,"description":"In the mid-27th century, the Terran Confederation is at war with the felinoid Kilrathi Empire. After destroying a Terran base, the Kilrathi have seized a NAVCOM unit with the hyperspace jump coordinates to Earth. With Terran reinforcements scheduled to arrive two hours after the Kilrathi hit Earth, it falls upon the starfighter carrier TCS Tiger Claw to keep the Kilrathi busy.\r\n\r\nIMDB: http://www.imdb.com/title/tt0131646/\r\n\r\n(This was originally a KINGDOM release that I re-encoded to be more file size friendly.  I kept the 5.1 audio and left the majority of the file size dedicated to the video.)\r\n\r\n[img]http://s32.postimg.org/krb8g73wh/vlcsnap_2016_05_08_15h29m05s20.png[/img]\r\n\r\n[img]http://s32.postimg.org/kyyvcpev5/vlcsnap_2016_05_08_15h29m15s120.png[/img]\r\n\r\n[img]http://s32.postimg.org/59j4yr81t/vlcsnap_2016_05_08_15h29m25s221.png[/img]\r\n\r\n[img]http://s32.postimg.org/pfr8bdt35/vlcsnap_2016_05_08_15h30m13s189.png[/img]\r\n\r\n[img]http://s32.postimg.org/drnzpcp6p/vlcsnap_2016_05_08_15h30m38s181.png[/img]\r\n\r\n[img]http://s32.postimg.org/hhnmi911d/vlcsnap_2016_05_08_15h31m06s202.png[/img]\r\n\r\nStats:\r\nWing Commander.mp4\r\nFormat                                   : MPEG-4\r\nFormat profile                           : Base Media\r\nCodec ID                                 : isom (isom/iso2/avc1/mp41)\r\nFile size                                : 2.25 GiB\r\nDuration                                 : 1h 40mn\r\nOverall bit rate                         : 3 207 Kbps\r\nEncoded date                             : UTC 2013-09-10 18:28:25\r\nTagged date                              : UTC 2013-09-10 18:28:25\r\nWriting application                      : Lavf54.63.104\r\n\r\nVideo\r\nID                                       : 1\r\nFormat                                   : AVC\r\nFormat/Info                              : Advanced Video Codec\r\nFormat profile                           :   \r\nFormat settings, CABAC                   : Yes\r\nFormat settings, ReFrames                : 2 frames\r\nCodec ID                                 : avc1\r\nCodec ID/Info                            : Advanced Video Coding\r\nDuration                                 : 1h 40mn\r\nBit rate                                 : 2 819 Kbps\r\nWidth                                    : 1 920 pixels\r\nHeight                                   : 820 pixels\r\nDisplay aspect ratio                     : 2.35:1\r\nFrame rate mode                          : Variable\r\nFrame rate                               : 23.976 fps\r\nMinimum frame rate                       : 11.988 fps\r\nMaximum frame rate                       : 23.976 fps\r\nColor space                              : YUV\r\nChroma subsampling                       : 4:2:0\r\nBit depth                                : 8 bits\r\nScan type                                : Progressive\r\nBits/(Pixel*Frame)                       : 0.075\r\nStream size                              : 1.97 GiB (88%)\r\nWriting library                          : x264 core 129\r\n\r\nAudio\r\nID                                       : 2\r\nFormat                                   : AAC\r\nFormat/Info                              : Advanced Audio Codec\r\nFormat profile                           : LC\r\nCodec ID                                 : 40\r\nDuration                                 : 1h 40mn\r\nDuration_FirstFrame                      : 64ms\r\nBit rate mode                            : Constant\r\nBit rate                                 : 384 Kbps\r\nChannel(s)                               : 2 channels\r\nChannel(s)_Original                      : 6 channels\r\nChannel positions                        : Front: L C R, Side: L R, LFE\r\nSampling rate                            : 48.0 KHz\r\nFrame rate                               : 46.875 fps (1024 spf)\r\nCompression mode                         : Lossy\r\nStream size                              : 275 MiB (12%)\r\nDefault                                  : Yes\r\n\r\n \nhttp://pow7.com/announce\r\n \nhttp://torrent.gresille.org/announce\r\n\r\nudp://tracker.coppersurfer.tk:6969/announce\r\n \nhttp://thetracker.org/announce\r\n\r\nudp://tracker.opentrackr.org:1337/announce\r\n \nhttp://pow7.com/announce\r\n \nhttp://torrent.gresille.org/announce\r\n\r\nudp://tracker.leechers-paradise.org:6969/announce\r\n\r\nudp://tracker.leechers-paradise.org:6969\r\n\r\nudp://tracker.coppersurfer.tk:6969/announce\r\n\r\nudp://zer0day.ch:1337/announce\r\n \nhttp://thetracker.org/announce\r\n \nhttp://explodie.org:6969/announce\r\n \nhttp://tracker1.wasabii.com.tw:6969/announce","torrent":{"xt":"urn:btih:d9e608e4c7351009a6419b49414e1e6281586bbd","amp;dn":"Wing+Commander+%281080%29","amp;tr":["udp%3A%2F%2Ftracker.leechers-paradise.org%3A6969","udp%3A%2F%2Fzer0day.ch%3A1337","udp%3A%2F%2Fopen.demonii.com%3A1337","udp%3A%2F%2Ftracker.coppersurfer.tk%3A6969","udp%3A%2F%2Fexodus.desync.com%3A6969"],"infoHash":"d9e608e4c7351009a6419b49414e1e6281586bbd","infoHashBuffer":{"type":"Buffer","data":[217,230,8,228,199,53,16,9,166,65,155,73,65,78,30,98,129,88,107,189]},"announce":[],"urlList":[]}}